<?xml version="1.0" encoding="UTF-8"?><svg id="Layer_1" xmlns="http://www.w3.org/2000/svg" width="208" height="174" viewBox="0 0 208 174"><defs><style>.cls-1{fill:#ffdee9;}.cls-2{fill:#ffc7cd;}.cls-3{fill:#4a4339;}.cls-4,.cls-5{fill:none;stroke:#4a4339;stroke-linecap:round;}.cls-4,.cls-5,.cls-6{stroke-miterlimit:10;}.cls-5{stroke-width:.5px;}.cls-6{fill:#4a5849;stroke:#4a5849;stroke-width:.75px;}</style></defs><path class="cls-2" d="m145.56,64.04c6.59-2.67,13.78-3.35,20.73-4.83,5.69-1.21,11.32-2.98,17.13-3.09,5.87-.12,11.93,1.61,16.24,5.59,4.31,3.99,6.53,10.42,4.71,16.01-1.03,3.13-3.17,5.76-5.26,8.3-4.29,5.21-8.58,10.42-12.87,15.62-2.4,2.92-4.98,5.96-8.54,7.22-5.43,1.92-11.28-.84-16.37-3.53-6.37-3.37-12.73-6.73-19.1-10.1-2.45-1.3-4.94-2.62-6.91-4.58-10.05-9.97-.02-22.47,10.24-26.62Z"/><path class="cls-1" d="m118.06,42.2c-6.85-10.24-17.6-17.79-29.54-20.76-4.34-1.08-9.35-1.44-12.9,1.28-3.18,2.44-4.3,6.65-5.23,10.56-1.4,5.86.46,9.67-1,15.51-1,4-3.99,4-4.39,10.03s3.52,11.32,7.51,15.72c6.71,7.41,15.69,13.1,25.6,14.4,9,1.18,18.14-1.69,24.74-7.95,5.93-5.62,3.93-16.01,2.12-23.18-1.4-5.54-3.73-10.86-6.91-15.61Z"/><path class="cls-2" d="m146.01,71.48c4.41-4.23,7.65-9.5,10.84-14.71,3.85-6.28,7.73-12.65,9.92-19.68,2.19-7.04,2.53-14.93-.63-21.59s-10.33-11.65-17.64-10.8c-2.84.33-5.64,1.48-8.47,1.1-2.8-.38-5.32-2.23-8.15-2.23-3.54,0-6.4,2.87-8.4,5.81-6.29,9.24-8.25,20.93-7.31,32.08.94,11.15,4.58,21.88,8.73,32.27.69,1.72,1.81,4.72,3.78,5.38,1.46.49,3.99-.47,5.44-.81,4.51-1.06,8.57-3.63,11.89-6.81Z"/><path class="cls-3" d="m4.85,168.32c4.78-7.23,8.31-14.51,13.59-21.41,18.74-24.94,50.03-32.51,79.54-26.66,2.62.26,5.14.19,7.33-.54,4.41-1.47,8.1-5.71,8.78-10.45l1.01,2.16c-5.42-4.09-1.48-11.29,1.09-15.82,2.29-4.2,4.59-8.3,6.17-12.62,3.3-8.31,3.11-19.35-4.96-24.79,0,0,.51-.86.51-.86,4.39,2.39,7.34,6.98,8.39,11.86,2.15,9.9-2.52,19.59-6.64,28.18-1.17,2.67-2.65,4.98-2.9,7.57-.08.9.12,2.38.84,2.7,0,0,1.16.68,1.16.68l-.16,1.48c-.7,6.6-5.22,12.47-11.54,14.85-6.01,2.21-12.25.71-18.09.16-10.93-1.06-22.06-.12-32.4,3.27-10.27,3.37-19.84,9.06-27.38,16.82-3.93,3.93-6.78,8.44-10.07,12.99-3.49,4.65-7.9,9.41-13.68,11.25,0,0-.59-.8-.59-.8h0Z"/><path class="cls-4" d="m117.41,108.2c4.15-1.47,6.74-5.55,8.61-9.53,1.87-3.98,3.46-8.3,6.73-11.25,4.54-4.08,11.99-4.4,16.86-.73"/><path class="cls-3" d="m64.37,119.64c8.13-7.38,5.63-10.9,6.36-20.63.02-.28.26-.49.54-.47.23.02.41.18.46.39.44,1.99.79,3.98,1.07,5.98.77,4.12.63,9.1-2.25,12.56-1.41,1.77-3.52,3.09-5.81,3.1-.48.01-.72-.62-.37-.93h0Z"/><path class="cls-6" d="m84.81,76.24c.06-.05-.01-.15-.08-.11l-13.95,8.17c-1.56.91-3.17,1.87-4.17,3.38-1.25,1.88-1.32,4.39-.5,6.49.22.57.51,1.11.84,1.62,2.69,4.13,8.86,4.17,11.41-.06,1.22-2.03,1.69-4.46,1.89-6.84.21-2.53.14-5.09.53-7.61.36-2.31,2.3-3.5,4.03-5.05Z"/><path class="cls-5" d="m118.34,58.39c7.48,1.97,13.33,9.01,13.9,16.73.08,1.04.07,2.11.34,3.12s.88,2,1.84,2.41c1.69.74,3.51-.51,5.25-1.13,2.35-.84,5.1-.46,7.14.98s3.28,3.53,3.27,6.03"/><path class="cls-3" d="m10.38,161.08c2.17-2.07,4.86-2.94,7.57-3.4,8.11-1.55,16.58-1.47,24.63.24,8.29,1.97,14.76,3.02,21.94-2.53,2.12-1.53,4.12-3.3,6.13-5.07,0,0,.71.71.71.71-9.3,10.82-15.43,13.09-29.39,10.17-7.73-1.36-15.63-1.29-23.31.2-2.55.55-5.06,1.03-7.98.64l-.31-.95h0Z"/></svg>