<?xml version="1.0" encoding="UTF-8"?><svg id="Layer_1" xmlns="http://www.w3.org/2000/svg" width="546" height="580" viewBox="0 0 546 580"><defs><style>.cls-1{fill:#665f58;}.cls-2{fill:#857c72;}.cls-3{fill:#c1dbaf;}.cls-4{fill:#1e2920;}.cls-5{fill:#0d110d;}.cls-6{fill:#3e493e;}.cls-7{fill:#9baf8c;}.cls-8{fill:#4a5849;}</style></defs><path class="cls-5" d="m115.53,551.89l324.31-2.27c5.07-.04,9.18-4.13,9.23-9.2l.23-22.79c.03-3.21-137.11-5.66-149.66-5.72-50.66-.25-101.34,1.22-151.9,4.4-9.16.58-28.47-1.81-36.34,3.26-6.49,4.18-5.95,14.8-5.2,23.79.4,4.85,4.47,8.57,9.33,8.53Z"/><path class="cls-4" d="m93.67,531.9l366.15,3.11c3.52.03,6.37-2.85,6.31-6.36l-2.67-159.26c-.05-3.23-2.55-5.89-5.77-6.14-57.39-4.41-115.09-4.74-172.53-1-48,3.13-96,9.1-144.18,7.18-14.32-.57-44.14-11.36-49.2,7.16-5.79,21.18-1.76,49.22-2.33,71.17l-1.99,77.73c-.09,3.5,2.71,6.39,6.2,6.42Z"/><path class="cls-8" d="m436.92,341.17c-16.42-3.9-33.5-3.64-50.37-3.35-80.22,1.36-160.44,2.73-240.66,4.09-15.72.27-31.75.59-46.59,5.78-15.5,5.42-28.96,15.85-40.75,27.06-.23.22-.44.43-.66.64,143.82-.89,287.64-1.78,431.46-2.67-13.75-15.49-32.27-26.76-52.44-31.55Z"/><path class="cls-6" d="m489.03,372.72c-143.71.89-287.42,1.78-431.13,2.67-5.06,13.61,22.23,11.46,32.47,11.62,68.33,1.05,136.67,1.34,205,.87,33.81-.23,67.61-.65,101.41-1.26,17.26-.31,34.52-.67,51.78-1.08,4.26-.1,23.58-2.31,36.85-2.68,5.01-.14,5.58-4.57,4.23-9.81,0-.03-.05-.05-.07-.08-.14-.15-.34-.24-.54-.24Z"/><path class="cls-2" d="m86.47,363.8c1.8,4.77,9.35,4.51,12.67.64s3.59-9.41,3.69-14.51c1.1-55.25,2.2-110.49,3.3-165.74.1-5.21.05-10.9-3.25-14.94-13.83-16.9-15.45,15.24-15.47,20.43-.1,19.35-.21,38.69-.31,58.04-.21,38.69-.42,77.39-.63,116.08Z"/><path class="cls-1" d="m127.65,335.6c.18,3.89.41,7.98,2.5,11.27,2.08,3.29,6.68,5.33,10,3.29,3.37-2.07,3.62-6.78,3.48-10.73-1.68-48.89-3.36-97.79-5.03-146.68-.19-5.55-.59-11.63-4.4-15.68-12.79-13.6-13.27,10.67-13,16.53.73,15.78,1.43,31.56,2.15,47.34,1.43,31.56,2.87,63.11,4.3,94.68Z"/><path class="cls-1" d="m425.57,335.5c-.18,3.89-.41,7.98-2.5,11.27s-6.68,5.33-10,3.29c-3.37-2.07-3.62-6.78-3.48-10.73,1.68-48.89,3.36-97.79,5.03-146.68.19-5.55.59-11.63,4.4-15.68,12.79-13.6,13.27,10.67,13,16.53-.73,15.78-1.43,31.56-2.15,47.34-1.43,31.56-2.87,63.11-4.3,94.68Z"/><path class="cls-2" d="m460.59,359.63c-1.8,4.77-9.35,4.51-12.67.64-3.32-3.87-3.59-9.41-3.69-14.51-1.1-55.25-2.2-110.49-3.3-165.74-.1-5.21-.05-10.9,3.25-14.94,13.83-16.9,15.45,15.24,15.47,20.43.1,19.35.21,38.69.31,58.04.21,38.69.42,77.39.63,116.08Z"/><path class="cls-7" d="m517.84,142.97c-163.23,15.49-327.62,18.83-491.35,10-2.18,4.14-3.66,8.6-4.05,13.27-.8,9.81,4.2,20.48,13.34,24.14s21.46-2.22,22.52-12.01c5.05,12.8,25.78,15.02,33.42,3.57,7.44,10.73,25.88,10.84,33.45.2,1.92,7.32,8.93,13,16.49,13.36s15.07-4.63,17.67-11.74c3.4,6.32,10.74,10.29,17.89,9.67,7.15-.62,13.7-5.8,15.96-12.61,7.66,12.94,29.5,13.49,37.8.94,4.07,9.39,19.56,10.45,24.88,1.71,6.64,10.83,25.94,9.29,30.77-2.46,9.58,12.68,32.59,10.64,39.79-3.53,6.59,11.21,24.22,13.67,33.64,4.69,2.81,6.27,10.02,10.23,16.82,9.26,6.8-.98,12.6-6.82,13.53-13.62,1.38,8.01,9.07,14.44,17.19,14.38s15.72-6.6,16.98-14.63c2.4,6.94,9.65,11.89,16.99,11.58,7.34-.31,14.15-5.84,15.96-12.96,8.93,11.16,29.36,9.23,36.05-3.4-4.81,7.84,3.57,18.89,12.76,18.59,9.19-.29,16.51-8.75,18.48-17.73,1.97-8.98-.21-18.31-2.72-27.16-1.43-1.16-2.84-2.34-4.25-3.52Z"/><path class="cls-3" d="m517.84,142.97c-37.09-31.18-67.53-70.24-88.66-113.84-2.01-4.15-77.91,4.43-86.29,4.76-29.69,1.17-59.39,1.86-89.1,2.06-29.71.21-59.42-.07-89.12-.82-10-.25-33.22-5.49-42.08-1.27-7.03,3.34-9.94,19.51-13.46,26.47-12.06,23.87-29.35,45.12-50.39,61.65-7.74,6.08-16.01,11.57-22.93,18.57-3.63,3.67-6.88,7.85-9.29,12.41,163.73,8.83,328.11,5.49,491.35-10Z"/></svg>