<?xml version="1.0" encoding="UTF-8"?><svg id="Layer_1" xmlns="http://www.w3.org/2000/svg" width="241" height="344" viewBox="0 0 241 344"><defs><style>.cls-1{fill:none;}.cls-2{fill:#fefbf3;}.cls-3{fill:#857c72;}.cls-4{fill:#c1dbaf;}.cls-5{fill:#1e2920;}.cls-6{fill:#4a4339;}.cls-7{fill:#49443f;}</style></defs><polygon class="cls-2" points="3 133.44 119 93.21 228.73 250.58 87.62 311.23 3 133.44"/><path class="cls-5" d="m70.88,163.62c1.74,3.66,3.3,7.49,5.95,10.57s6.68,5.32,10.68,4.59c.69-4.62-2.09-8.98-4.74-12.83-4.78-6.95-9.55-13.89-14.33-20.84,1.88-3.91,1.44-8.84-1.1-12.36s-7.09-5.48-11.4-4.91c3.71,15.16,2.34,31.52-3.84,45.85.96-2.22,3.76-4.45,5.14-6.55,1.68-2.55,2.95-5.24,4.25-7.99,3.6-7.6,6.92-.72,9.39,4.46Z"/><path class="cls-5" d="m78.69,138.84c.25,0,.49-.02.69-.06,1.84-.34,3.69-1.45,5.23-2.49,1.91-1.31,3.52-3.05,4.68-5.05.28-.48,2.64-6.03,1.95-6.19.43.1.86.21,1.3.31,1.61,1.84.36,5.27-2.05,5.65,1.41,6.19.49,12.88-2.54,18.46,6.34-.34,11.99-5.88,12.44-12.21l17.95.64c1.56-.72,2.53-2.54,2.27-4.24s-1.73-3.14-3.44-3.36c-3.01-.4-5.43,2.55-8.41,3.1-3.14.58-6.46-2.12-6.54-5.31-.03-1.34.42-2.67.32-4.01-.16-2.05-1.77-3.9-3.78-4.34s-4.25.56-5.25,2.35c-1.93-3.27-6.09-5.04-9.78-4.16-1.66,6.62-3.92,13.38-4.98,20.11,3.78.81,6.13,3.23,7.6,6.81,1.47,3.58,2.94,7.17,4.41,10.75.49,1.2.99,2.45.91,3.74-.07,1.19-.66,2.33-1.59,3.08-1.68,1.36-4.25,1.24-6.1.12s-3.08-3.07-3.85-5.09-1.17-4.17-1.75-6.26c-.82-2.91-2.05-5.68-3.59-8.28-.66-1.12-1.91-2.09-1.05-3.22.92-1.21,3.35-.8,4.95-.84Z"/><path class="cls-5" d="m102.29,148.69c2.85,1.12,6.04,1.37,9.03.73,1.3-.28,2.75-.93,3.03-2.23.3-1.42-1.02-2.67-2.34-3.27-2.89-1.3-6.21-1-9.37-.69-1.48.15-2.98.3-4.39.78-1.23.42-2.94,1.24-3.26,2.52,2.71.02,4.82,1.19,7.3,2.16Z"/><path class="cls-5" d="m98.33,155.73c.59.42,1.3.62,1.98.87s1.37.58,1.79,1.17c.66.92.49,2.17.51,3.3s.47,2.5,1.59,2.7c.54-2.04,2.8-3.13,4.89-3.4s4.26,0,6.29-.58,3.96-2.44,3.58-4.51c-1.83-2.03-4.91-2.17-7.63-2.16-3.32,0-6.64.09-9.95.02-.73-.02-2.76-.53-3.35-.05-.93.75-.69,2.03.31,2.66Z"/><path class="cls-5" d="m115.54,166.22c1.49-.36,3.04-.65,4.53-.32s2.92,1.4,3.21,2.91c.39,2.04-1.49,3.95-3.52,4.37s-4.12-.22-6.09-.86c-1.84-.59-3.68-1.19-5.52-1.78-1.77-.57-8.21-4.3-3.29-5.05,1.66-.25,3.05.86,4.57,1.24,2.09.52,4.07-.01,6.11-.5Z"/><path class="cls-5" d="m101.79,203.2c1.09-2.05,2.03-4.73-.64-6.3-.48-.28-1.02-.47-1.57-.58-3.1-.64-6.19-1.28-9.29-1.92-.71-.15-1.32.52-1.11,1.22.59,2,1.13,4.03,1.39,6.1.6,4.65-.17,9.31-1.27,13.9-.24.98.94,1.68,1.68.99,1.66-1.52,3.58-3.02,4.44-4.03,2.44-2.89,4.58-6.04,6.35-9.38Z"/><path class="cls-5" d="m101.22,211.26c2.15-1.01,4.76-.96,6.88.12,2.42,1.23,4.09,3.77,4.38,6.47s-.75,5.49-2.66,7.42c3.46.08,6.32,2.92,7.73,6.08s1.73,6.68,2.49,10.05,2.14,6.85,4.97,8.84c2.36,1.66,5.7,2.3,6.97,4.89,1.39,2.83-.99,6.47-4.08,7.1s-6.27-1.11-8.25-3.57-2.98-5.53-3.95-8.53c-1.67-5.18-3.34-10.36-5.01-15.54.89,2.77-2.78,8.71-4.23,10.89s-5.85,8.28-8.74,8.33.31-8.03.7-9.8c1.11-5.03,1.91-10.13,2.39-15.25.55-5.82.68-11.68.4-17.52Z"/><path class="cls-3" d="m114.06,193.05c.4,2.54,3.35,3.73,5.89,4.16,3.94.67,8.08.64,11.81-.8s6.97-4.45,8.03-8.3c.58-2.09.44-4.51-.93-6.19-3.99-4.87-7.81,2.24-10.48,4.55-4.03,3.47-9.05,5.82-14.32,6.59Z"/><path class="cls-7" d="m160.41,173.67c-.44.75-1.26,1.19-2.05,1.55-.98.45-2.06.86-3.12.63-1.28-.27-2.24-1.48-2.42-2.78-.05-.37-.05-.74,0-1.11-.3.09-.59.14-.84.13-1.11-.04-1.64-1.04-1.92-2.03-.05,0-.11,0-.16-.02-.67-.13-1.37-.81-1.94-1.15-.65-.37-1-.16-.82-1.18.28-1.61,1.87-3.58,2.64-5.02.26-.48.64-1.04,1.19-1,.54.04.85.63,1,1.16.1.35.18.7.24,1.06.22-.04.45-.09.67-.12,1.07-.16,2.22-.25,3.17.26,1.03.55,1.61,1.76,1.58,2.93,1.05.21,1.76,1.46,2.2,2.34.35.68.7,1.37.86,2.12.16.74.13,1.57-.26,2.22Z"/><path class="cls-1" d="m156.4,153.01c.29,1.25.59,2.49,1.12,3.59,1.55,3.25,5.47,5.17,8.99,4.41,3.52-.75,6.3-4.11,6.39-7.71.09-3.6-2.53-7.09-6.01-8.01-1.73-.46-3.56-.31-5.27.27-.38.5-.75,1.01-1.13,1.51-1.42,1.93-2.8,3.9-4.09,5.92Z"/><path class="cls-4" d="m175.66,125.95c-.91,1.59-1.89,3.15-2.91,4.68-3.44,5.15-7.39,9.97-11.13,14.94-.38.5-.75,1-1.13,1.51-1.42,1.92-2.79,3.9-4.09,5.92-.24-1-.46-2.01-.78-2.93-.3-.87-.68-1.66-1.23-2.31,2.18-4.05,4.2-8.2,6.04-12.41.63-1.42,1.24-2.87,1.86-4.31,2.6-6.01,5.4-11.98,10.12-16.44,2.44-.77,4.97,1.59,5.32,4.12.35,2.53-.83,5.01-2.09,7.23Z"/><path class="cls-4" d="m150.79,163.88c-.78,2.05-1.41,4.14-1.84,6.3-.52,2.56-.77,5.18-1.44,7.71-.67,2.53-1.81,5.03-3.79,6.74-3.86,3.33-11.45,1.61-10.61-4.45.64-4.6,7.11-10.1,9.76-13.83,1.06-1.49,2.1-3.01,3.11-4.53.48-.72.96-1.46,1.43-2.19.34.52.7,1.03,1.09,1.53.72.94,1.5,1.85,2.29,2.72Z"/><path class="cls-6" d="m146.02,149.28c.18-.29.35-.57.53-.86-.2.27-.37.56-.53.86Z"/><path class="cls-7" d="m147.49,147.39c1.54-1.31,3.89-1.71,5.65-.7.51.29.91.66,1.26,1.07,2.18-4.06,4.2-8.2,6.04-12.41.63-1.43,1.24-2.87,1.86-4.31-2.74,1.48-5.24,3.79-7.3,6.12-3.11,3.52-5.95,7.3-8.46,11.27.28-.38.59-.72.95-1.03Z"/><path class="cls-3" d="m234,229.35c.02,2.34-2.98,3.32-4.35,1.42-9.74-13.52-23.47-24.17-39.06-30.09-5.55-2.11-7.65-3.93-12.71-7.04-5.48-3.37-9-8.65-13.23-13.07-3.85-4.01-5.88-4.01-13.1-15.86-.2-.31-.5-.55-.76-.83-.79-.87-1.57-1.78-2.29-2.72-.38-.5-.74-1.01-1.09-1.53-1.36-2.09-2.3-4.36-2.27-6.84.02-1.17.29-2.35.82-3.4.04-.07.08-.14.12-.21.13-.22.26-.43.4-.65.04-.07.09-.14.14-.21.26-.34.55-.65.87-.93,1.54-1.31,3.89-1.7,5.65-.7.5.29.92.65,1.26,1.07.55.66.93,1.45,1.23,2.31.32.92.54,1.93.78,2.93.29,1.25.5,2.55,1.12,3.6,4.1,6.94,10.35,7.61,13.87,6.85,3.52-.75,6.33-4.11,6.39-7.71.11-6.85-7.21-9.69-10.89-10.44-.18-.04-.35-.07-.53-.1-1.8-.28-2.6-2.44-1.49-3.88,2.24-2.9,4.48-5.79,6.57-8.78.77-1.1,2.3-1.37,3.38-.56,2.75,2.05,5.18,4.77,8.43,5.84,5.45,1.79,11.7-1.52,17.01.65,3.23,1.32,5.41,4.46,6.57,7.75,1.17,3.29,1.51,6.8,2.2,10.22,2.04,10.17,7.28,19.66,14.8,26.8,2.65,2.52,5.63,4.82,7.46,7.98,2.38,4.13,2.49,9.13,2.52,13.9.06,8.08.13,16.15.19,24.23Z"/><path class="cls-7" d="m145.15,152.79c.02-1.21.31-2.43.87-3.51-.61.98-1.2,1.97-1.77,2.98-.84,1.48-1.65,3.04-1.8,4.74-.15,1.7.5,3.58,1.99,4.4.48.27,1.01.4,1.55.41.48-.73.96-1.46,1.43-2.19-1.36-2.09-2.31-4.36-2.26-6.84Z"/></svg>