<?xml version="1.0" encoding="UTF-8"?><svg id="Layer_1" xmlns="http://www.w3.org/2000/svg" width="230.46" height="343.59" viewBox="0 0 230.46 343.59"><defs><style>.cls-1{fill:#fefbf3;}.cls-2{fill:#c1dbaf;}.cls-3{fill:#1e2920;}.cls-4{fill:#4a5849;}</style></defs><path class="cls-4" d="m7.75,148.65c1.36-13.06,4.31-27.32,14.72-35.32,9.48-7.3,22.49-7.34,34.46-7.07,33.68.78,67.36,1.57,101.05,2.35,12.24.29,25.38.86,35.17,8.22,13.24,9.94,15.78,28.54,16.24,45.09.9,32.88-2.16,65.86-9.1,98.01-2.87,13.29-6.71,27.02-15.94,36.99-5.95,6.42-13.76,10.84-21.76,14.38-34.68,15.36-75.66,15.37-110.59.78-5.61-2.34-13.8-4.69-18.17-9.17-5.7-5.86-8.09-16.89-10.73-24.4-6.83-19.48-11.63-39.68-14.33-60.15-3.05-23.1-3.42-46.55-1.01-69.72Z"/><path class="cls-1" d="m23.11,292.48c2.01,4.92,4.08,9.94,7.65,13.88,4.93,5.44,12.12,8.19,19.13,10.36,37.72,11.65,78.91,11.79,116.71.41,6.43-1.94,12.91-4.28,18.09-8.55,8.74-7.2,12.47-18.67,15.78-29.5.57-1.87,1.15-3.83.52-5.78-.36-1.1-1.17-2.04-2.27-2.38-2.39-.74-4.35,1.54-5.87,3.42-7.92,9.79-20.01,15.15-32.04,18.93-25.46,8-52.36,10.6-78.88,7.68-12.92-1.42-25.89-4.1-37.92-9.19-6.66-2.82-12.38-7.26-18.61-10.53-3.1-1.62-6.52,1.6-5.11,4.8.96,2.19,1.97,4.36,2.83,6.46Z"/><path class="cls-1" d="m13.11,117.33c2.15-7.12,3.24-14.85,7.72-20.79,6.56-8.71,18.4-11.16,29.2-12.58,37.38-4.91,75.41-4.96,112.8-.15,8.59,1.11,17.66,2.7,24.13,8.45,3.3,2.94,5.68,6.75,8,10.51,4.75,7.68,9.5,15.36,14.25,23.04,1.71,2.77,3.5,5.96,2.66,9.11-.43,1.62-1.98,2.83-3.57,3.22-1.82.45-3.46,1.54-4.32,3.21-1.47,2.84-4.78,5.05-8.05,5.8-4.91,1.13-10.16.39-14.97,1.89-7.27,2.27-12.18,9.19-19.14,12.29-7.39,3.29-16,1.83-23.69-.67-7.69-2.49-15.19-5.99-23.25-6.67-13.93-1.18-27.4,6.19-41.38,5.83-15.8-.4-30.24-8.19-46.28-8.53-8.75-.19-18.69-3.51-24.15-10.72-2.19-2.9-1.55-7,1.31-9.24,4.36-3.41,7.03-8.48,8.7-14Z"/><rect class="cls-2" x="82.33" y="206.12" width="50.63" height="50.63" rx="4.4" ry="4.4" transform="translate(195.18 -8.33) rotate(45)"/><rect class="cls-2" x="63.19" y="-1.2" width="9.68" height="115.45" rx="2.99" ry="2.99" transform="translate(-19.75 45.68) rotate(-32.68)"/><circle class="cls-3" cx="14.98" cy="125.43" r="2.61"/><circle class="cls-3" cx="24.54" cy="130.64" r="2.61"/><circle class="cls-3" cx="34.1" cy="134.12" r="2.61"/><circle class="cls-3" cx="44.53" cy="137.6" r="2.61"/><circle class="cls-3" cx="55.83" cy="140.2" r="2.61"/><circle class="cls-3" cx="66.26" cy="141.94" r="2.61"/><circle class="cls-3" cx="78.43" cy="142.81" r="2.61"/><circle class="cls-3" cx="89.73" cy="142.81" r="2.61"/><circle class="cls-3" cx="101.9" cy="142.81" r="2.61"/><circle class="cls-3" cx="114.93" cy="142.81" r="2.61"/><circle class="cls-3" cx="206.08" cy="127.2" r="2.61"/><circle class="cls-3" cx="196.85" cy="130.67" r="2.61"/><circle class="cls-3" cx="185.81" cy="134.21" r="2.61"/><circle class="cls-3" cx="175.56" cy="136.81" r="2.61"/><circle class="cls-3" cx="163.51" cy="138.69" r="2.61"/><circle class="cls-3" cx="152.25" cy="139.63" r="2.61"/><circle class="cls-3" cx="140.12" cy="140.64" r="2.61"/><circle class="cls-3" cx="127.13" cy="141.73" r="2.61"/><circle class="cls-3" cx="187.93" cy="298.12" r="2.61"/><circle class="cls-3" cx="179.67" cy="303.59" r="2.61"/><circle class="cls-3" cx="168.74" cy="307.44" r="2.61"/><circle class="cls-3" cx="158.57" cy="310.34" r="2.61"/><circle class="cls-3" cx="146.57" cy="312.56" r="2.61"/><circle class="cls-3" cx="135.34" cy="313.82" r="2.61"/><circle class="cls-3" cx="123.25" cy="315.19" r="2.61"/><circle class="cls-3" cx="110.3" cy="316.64" r="2.61"/><circle class="cls-3" cx="30.94" cy="299.18" r="2.61"/><circle class="cls-3" cx="40.88" cy="305.11" r="2.61"/><circle class="cls-3" cx="50.96" cy="308.32" r="2.61"/><circle class="cls-3" cx="62.88" cy="310.91" r="2.61"/><circle class="cls-3" cx="74.06" cy="312.52" r="2.61"/><circle class="cls-3" cx="86.1" cy="314.26" r="2.61"/><circle class="cls-3" cx="99.01" cy="316.11" r="2.61"/><rect class="cls-2" x="147.91" y="-2.02" width="9.68" height="115.45" rx="2.99" ry="2.99" transform="translate(251.24 185.07) rotate(-147.32)"/></svg>