<?xml version="1.0" encoding="UTF-8"?><svg id="Layer_1" xmlns="http://www.w3.org/2000/svg" width="251" height="344" viewBox="0 0 251 344"><defs><style>.cls-1{fill:#f0e6d9;}.cls-2{fill:#fefbf3;}.cls-3{fill:#e0fbcd;}.cls-4{fill:#4a5849;}.cls-5{fill:#4a4339;}</style></defs><path class="cls-2" d="m47.56,93.75c-1.23-2.05-1.04-3.84-3.43-3.95s-4.78.36-7.17.27-4.96-.91-6.25-2.93c-.54-1.48-1.09-2.97-1.63-4.45-3.14,1.63-7.1,1.19-10.16-.6-3.06-1.79-5.28-4.76-6.77-7.97-1.02-2.21-1.73-4.68-1.25-7.06s2.47-4.58,4.9-4.64c3.04-.08,5.85,3,8.71,1.97,2.72-.97,2.97-4.78,2.04-7.52s-2.55-5.51-1.86-8.31c.73-2.92,3.68-4.63,6.37-5.98,9.54-4.75,19.31-9.06,29.25-12.91,3.76-1.45,7.99-2.84,11.7-1.26,3.46,1.47,5.42,5.11,6.93,8.56,2.83,6.46,5.04,13.2,6.59,20.08,1.36,6.05,2.21,12.42.62,18.41-1.59,5.99-6.11,11.55-12.18,12.78-2.53.52-5.61.51-7.03,2.67-1,1.53-.69,3.53-.35,5.32,1.46,7.6,2.92,15.2,4.37,22.79-2.18.95-4.79.3-6.74-1.06s-3.37-3.33-4.76-5.27c-2.59-3.62-5.19-7.24-7.78-10.86-1.12-1.57-4.67-1.44-4.42-3.32.11-.82.75-1.48.8-2.37s-.53-1.64-.53-2.41Z"/><path class="cls-5" d="m20.03,65.06c.86.7,1.85,1.23,2.94,1.39,4.99.73,5.47-4.31,4.32-7.69s-3.31-7.37.45-10.51c.79-.66,1.73-1.13,2.7-1.48l36.97-13.17c1.99-.71,4.36-1.37,6.08-.15,2.57,1.83,4.12,6.98,7.21,7.6.38-4.95-1.52-10.11-2.54-14.97s-3.24-9.59-6.92-12.93c-3.48-3.16-7.99-4.88-12.46-6.35-6.28-2.06-13.1-3.73-19.42-1.82-3,.91-5.71,2.58-8.37,4.24-3.5,2.17-7.01,4.35-10.51,6.52-2.91,1.81-5.89,3.67-8.04,6.34-3.89,4.82-4.51,11.45-4.43,17.64.09,7.21-.37,17.7,4.04,24,.46.65,1.36.8,2.04.39,1.78-1.08,4.49-.26,5.95.92Z"/><path class="cls-2" d="m60.34,323.37c2.37-2.47,2.29-6.38,3.92-9.39,2.38-4.38,8.76-5.95,12.9-3.17,2.73,1.84,4.26,5.07,4.76,8.32s.11,6.56-.29,9.83c-.26,2.14-.66,4.53-2.42,5.78-1.86,1.32-4.4.76-6.64.36-4.98-.9-10.06-.77-15.07-.34-3.59.3-7.61,1.66-10.25-1.58-6.1-7.48,10.05-6.64,13.09-9.8Z"/><path class="cls-2" d="m199.5,99.97c7.49-1.59,13.93-6.14,20.52-10.03,6.59-3.89,14.06-7.29,21.64-6.23,1.51,1.66,1.64,4.24.91,6.36s-2.19,3.91-3.62,5.65c-3.25,3.95-6.49,7.9-9.74,11.84-2.04,2.48-4.14,5.02-6.88,6.7-6.62,4.06-15.11,2.27-22.63.35-.58.51-1.88.14-2.38-.46s-.62-1.41-.7-2.18c-.37-3.97,1.2-8.39,2.88-12.01Z"/><path class="cls-1" d="m52.11,314.86c13.6,4.02,28.35,4.09,41.99.18-2.05-24.59-4.09-49.44-.42-73.84,3.66-24.4,13.62-48.67,32.08-65.04,9.27-8.22,20.29-14.15,31.21-20,14.11-7.57,28.21-15.13,42.32-22.7.14-13.3.28-26.61.42-39.91-27.51,13.36-55.01,26.72-82.52,40.08-6.4,3.11-13.33,6.75-16.04,13.34-2.76,6.7-.28,14.41-1.62,21.53-1.61,8.6-8.73,15.35-16.75,18.88-4.25,1.87-8.77,2.97-13.33,3.74-2.68.45-9.45-.11-11.37,1.91-2.09,2.19-.98,10.4-1.12,13.35l-.66,14.75c-.9,20.19-1.8,40.38-2.7,60.57-.13,2.98-2.64,32.84-1.48,33.18Z"/><path class="cls-4" d="m29.37,146.79c6.01-3.84,12.02-7.67,18.03-11.51-.76,2.4-1.52,4.85-1.49,7.37.03,2.52.98,5.16,3.03,6.61,2.6,1.83,6.13,1.32,9.22.6-3.81,4.64-7.66,9.33-12.45,12.95-5.95,4.5-13.6,7.27-21.02,4.93-2.43-.76-4.66-2.12-6.42-3.96-5.64-5.91-3.92-13.28-1.66-19.79,5.99-17.29,15.77-33.26,28.43-46.46.95-.99,2.56-.84,3.38.26,4.94,6.69,12.41,12.14,19.9,15.49l-1.67-20.14c11.02-1.37,22.6,3.73,29.03,12.79,3.81,5.38,6.66,12.58,13.89,13.03,1.64.1,3.28-.22,4.81-.83,4.54-1.81,7.61-5.49,10.61-9.1,1.93,6.13,6.67,11.31,12.6,13.79-8.05,4.73-16.09,9.46-24.14,14.2-2.92,1.72-8.44,3.13-9.34,6.39-.71,2.58,2.57,5.9,3.35,8.46,3.08,10.07,4.11,21.59-1.23,30.66-3.96,6.73-10.88,11.17-17.96,14.46-11.65,5.41-24.43,8.35-37.27,8.58.75-7.73,1.5-15.45,2.25-23.18.37-3.79.73-7.65-.1-11.37-.83-3.71-3.08-7.32-6.59-8.8"/><path class="cls-3" d="m53.11,175.53c-.41,1.77.56,3.76,2.21,4.53,2.15.99,4.64-.06,6.77-1.11,6.09-2.99,12.17-5.98,18.26-8.97-1.83,8.58-3.66,17.15-5.48,25.73-.29,1.38-.56,2.92.18,4.12,1.04,1.66,3.62,1.71,5.22.57s2.4-3.07,3.01-4.94c2.81-8.66,2.84-18.19.07-26.86,6.07,3.23,10.23,9.81,10.53,16.68,3.6.4,6.98-2.69,7.64-6.25.66-3.56-.97-7.26-3.52-9.83s-5.9-4.18-9.29-5.46c7.43-5.95,13.32-13.8,16.97-22.59-2.42-.77-5.12.1-7.18,1.6s-3.61,3.57-5.22,5.53c-5.4,6.56-11.88,12.23-19.06,16.77-3.64,2.3-7.46,4.31-11.42,6-2.87,1.22-8.86.86-9.7,4.48Z"/><path class="cls-2" d="m53.63,133.76c-3.72,0-7.02,1.78-9.12,4.53l.29-.25.02.98c.13,6.37,2.77,12.63,7.24,17.17l.29.29-.11.14c.46.06.92.09,1.39.09,6.34,0,11.47-5.14,11.47-11.47s-5.14-11.47-11.47-11.47Z"/><path class="cls-2" d="m51.12,156.54l-4.61,5.64.71.58,5.02-6.14c-.42-.05-.84-.13-1.24-.22.04.05.08.1.12.14Z"/><path class="cls-2" d="m32.68,148.51l.6.69,9.78-8.45c.38-.89.87-1.71,1.44-2.46l-11.83,10.22Z"/><path class="cls-2" d="m52.06,156.19c-4.46-4.54-7.1-10.8-7.24-17.17l-.02-.98-.29.25c-.58.75-1.07,1.58-1.44,2.46l.88-.76c.36,6.07,2.9,11.96,7.05,16.4.41.1.82.17,1.24.22l.11-.14-.29-.29Z"/><circle class="cls-2" cx="137.15" cy="111.28" r="11.47"/></svg>