<?xml version="1.0" encoding="UTF-8"?><svg id="Layer_1" xmlns="http://www.w3.org/2000/svg" width="98.46" height="85.99" viewBox="0 0 98.46 85.99"><defs><style>.cls-1,.cls-2{fill:#ffc7cd;}.cls-3{fill:#1e2920;}.cls-2{stroke:#4a5849;stroke-miterlimit:10;stroke-width:.5px;}</style></defs><path class="cls-3" d="m42.03,57.59c1.65,7.48.16,15.62-3.58,22.27-.99,1.47-1.78,3.43-3.72,3.87-.39.1-.79-.21-.79-.62-.05-1.46.59-2.31,1.17-3.25,2.77-4.74,4.82-9.97,5.51-15.45.27-2.21.42-4.44.42-6.71-.02-.58.88-.69.99-.12h0Z"/><path class="cls-1" d="m96.96,39.93c0,6.5-15.87,12.97-27.01,13.68-1.92.12-3.38,1.8-3.29,3.76.01.25.02.51.04.77.42,9.22-11.69,22.21-16.67,14.51-4.37-6.75-8.09-9.42-10.45-11.6-3.36-3.11-5.15.56-6.52,1.8-1.47,1.33-3.29,2.34-5.49,2.87-14.48,3.44-18.8,8.21-23.76,2.4-4.98-5.81-1.63-17.07,7.5-25.17,3.89-3.47,8.22-5.79,12.29-6.84,1.47-.38,5.39-3.15,5.67-4.67,1.26-6.79,8.31-4.18,10.41-10.6,1.74-5.3,8.74-8.41,14.2-6.69,1.45.46,2.69-.41,3.89-1.36,1-.79,2.47-3.57,4.47-4.32,8.47-3.16,16.86-10.08,22.7-5.36,5.84,4.69,5.26,15.36-1.3,23.82,0,.01-.02.03-.03.04-1.49,1.94-.82,4.78,1.43,5.67,6.76,2.68,11.91,2.03,11.91,7.31Z"/><path class="cls-3" d="m40.38,24.91c-.84-3.45-1.13-6.57-2.75-9.76-1.8-3.15-4-6.19-4.66-9.88-.12-.68.95-.82.99-.12.2,3.58,2.53,6.58,4.51,9.46,2.22,2.81,5.31,6.78,2.88,10.51-.26.4-.92.24-.97-.23h0Z"/><path class="cls-2" d="m48.2,31.66c1.45-1.82,1.88-4.28,1.86-6.62-.02-1.45-.23-2.99-1.16-4.1s-2.77-1.49-3.77-.46c-1.22,1.25-.46,3.44-1.2,5.03-.5,1.06-1.62,1.69-2.74,1.99s-2.3.32-3.43.57c-1.13.24-2.29.75-2.93,1.73s-.55,2.52.43,3.14c.56.36,1.26.36,1.92.35,1.21-.01,2.41-.04,3.62-.04.97,0,1.63.36,2.56.5,1.81.27,3.72-.66,4.85-2.08Z"/><path class="cls-3" d="m40.34,25.38c-1.69-3.12-2.75-6.07-5.13-8.74-2.54-2.59-5.44-4.97-7.01-8.38-.28-.63.71-1.03.93-.36,1.1,3.41,4.11,5.72,6.76,8.01,2.87,2.18,6.85,5.19,5.45,9.44-.15.45-.83.47-1,.03h0Z"/></svg>